<mxfile host="app.diagrams.net" agent="Mozilla/5.0 (Windows NT 10.0; Win64; x64) AppleWebKit/537.36 (KHTML, like Gecko) Chrome/135.0.0.0 Safari/537.36" version="26.2.14">
  <diagram name="Page-1" id="3VIVjiSgWDcQZrjdE7iA">
    <mxGraphModel dx="2276" dy="751" grid="1" gridSize="10" guides="1" tooltips="1" connect="1" arrows="1" fold="1" page="1" pageScale="1" pageWidth="850" pageHeight="1100" math="0" shadow="0">
      <root>
        <mxCell id="0" />
        <mxCell id="1" parent="0" />
        <mxCell id="dB9IZ_hwEhJgan7sXvM7-10" value="&lt;font style=&quot;font-size: 18px;&quot;&gt;Country&lt;/font&gt;" style="edgeStyle=orthogonalEdgeStyle;rounded=0;orthogonalLoop=1;jettySize=auto;html=1;" parent="1" source="dB9IZ_hwEhJgan7sXvM7-1" target="dB9IZ_hwEhJgan7sXvM7-6" edge="1">
          <mxGeometry relative="1" as="geometry">
            <Array as="points">
              <mxPoint x="-70" y="600" />
              <mxPoint x="-180" y="600" />
            </Array>
          </mxGeometry>
        </mxCell>
        <mxCell id="dB9IZ_hwEhJgan7sXvM7-15" value="" style="edgeStyle=orthogonalEdgeStyle;rounded=0;orthogonalLoop=1;jettySize=auto;html=1;" parent="1" source="dB9IZ_hwEhJgan7sXvM7-1" target="dB9IZ_hwEhJgan7sXvM7-14" edge="1">
          <mxGeometry relative="1" as="geometry" />
        </mxCell>
        <mxCell id="dB9IZ_hwEhJgan7sXvM7-1" value="&lt;font style=&quot;font-size: 18px;&quot;&gt;Noir&lt;/font&gt;" style="rounded=1;whiteSpace=wrap;html=1;" parent="1" vertex="1">
          <mxGeometry x="-90" y="480" width="120" height="60" as="geometry" />
        </mxCell>
        <mxCell id="dB9IZ_hwEhJgan7sXvM7-4" value="" style="edgeStyle=orthogonalEdgeStyle;rounded=0;orthogonalLoop=1;jettySize=auto;html=1;" parent="1" source="dB9IZ_hwEhJgan7sXvM7-3" target="dB9IZ_hwEhJgan7sXvM7-1" edge="1">
          <mxGeometry relative="1" as="geometry" />
        </mxCell>
        <mxCell id="dB9IZ_hwEhJgan7sXvM7-5" value="&lt;font style=&quot;font-size: 18px;&quot;&gt;JWT&lt;/font&gt;" style="edgeLabel;html=1;align=center;verticalAlign=middle;resizable=0;points=[];" parent="dB9IZ_hwEhJgan7sXvM7-4" vertex="1" connectable="0">
          <mxGeometry x="-0.1495" y="-3" relative="1" as="geometry">
            <mxPoint as="offset" />
          </mxGeometry>
        </mxCell>
        <mxCell id="dB9IZ_hwEhJgan7sXvM7-3" value="&lt;font style=&quot;font-size: 18px;&quot;&gt;Trusted entity&lt;/font&gt;" style="ellipse;whiteSpace=wrap;html=1;" parent="1" vertex="1">
          <mxGeometry x="-280" y="470" width="120" height="80" as="geometry" />
        </mxCell>
        <mxCell id="dB9IZ_hwEhJgan7sXvM7-34" value="" style="edgeStyle=orthogonalEdgeStyle;rounded=0;orthogonalLoop=1;jettySize=auto;html=1;" parent="1" source="dB9IZ_hwEhJgan7sXvM7-6" target="dB9IZ_hwEhJgan7sXvM7-13" edge="1">
          <mxGeometry relative="1" as="geometry" />
        </mxCell>
        <mxCell id="dB9IZ_hwEhJgan7sXvM7-6" value="&lt;font style=&quot;font-size: 18px;&quot;&gt;Prover&lt;/font&gt;" style="rounded=1;whiteSpace=wrap;html=1;" parent="1" vertex="1">
          <mxGeometry x="-280" y="760" width="120" height="60" as="geometry" />
        </mxCell>
        <mxCell id="dB9IZ_hwEhJgan7sXvM7-36" value="&lt;font style=&quot;font-size: 20px;&quot;&gt;Starknet&lt;/font&gt;&lt;div&gt;&lt;font style=&quot;font-size: 20px;&quot;&gt;&lt;br&gt;&lt;/font&gt;&lt;/div&gt;&lt;div&gt;&lt;font style=&quot;font-size: 20px;&quot;&gt;&lt;br&gt;&lt;/font&gt;&lt;/div&gt;&lt;div&gt;&lt;font style=&quot;font-size: 20px;&quot;&gt;&lt;br&gt;&lt;/font&gt;&lt;/div&gt;&lt;div&gt;&lt;font style=&quot;font-size: 20px;&quot;&gt;&lt;br&gt;&lt;/font&gt;&lt;/div&gt;&lt;div&gt;&lt;font style=&quot;font-size: 20px;&quot;&gt;&lt;br&gt;&lt;/font&gt;&lt;/div&gt;&lt;div&gt;&lt;font style=&quot;font-size: 20px;&quot;&gt;&lt;br&gt;&lt;/font&gt;&lt;/div&gt;&lt;div&gt;&lt;font style=&quot;font-size: 20px;&quot;&gt;&lt;br&gt;&lt;/font&gt;&lt;/div&gt;&lt;div&gt;&lt;font style=&quot;font-size: 20px;&quot;&gt;&lt;br&gt;&lt;/font&gt;&lt;/div&gt;&lt;div&gt;&lt;font style=&quot;font-size: 20px;&quot;&gt;&lt;br&gt;&lt;/font&gt;&lt;/div&gt;&lt;div&gt;&lt;font style=&quot;font-size: 20px;&quot;&gt;&lt;br&gt;&lt;/font&gt;&lt;/div&gt;" style="rounded=0;whiteSpace=wrap;html=1;fillColor=#00E0FF;" parent="1" vertex="1">
          <mxGeometry x="140" y="570" width="420" height="290" as="geometry" />
        </mxCell>
        <mxCell id="dB9IZ_hwEhJgan7sXvM7-42" style="edgeStyle=orthogonalEdgeStyle;rounded=0;orthogonalLoop=1;jettySize=auto;html=1;entryX=0;entryY=0.75;entryDx=0;entryDy=0;" parent="1" source="dB9IZ_hwEhJgan7sXvM7-13" target="dB9IZ_hwEhJgan7sXvM7-16" edge="1">
          <mxGeometry relative="1" as="geometry">
            <Array as="points">
              <mxPoint x="80" y="790" />
              <mxPoint x="80" y="679" />
            </Array>
          </mxGeometry>
        </mxCell>
        <mxCell id="dB9IZ_hwEhJgan7sXvM7-13" value="&lt;font style=&quot;font-size: 18px;&quot;&gt;Proof&lt;/font&gt;" style="rounded=1;whiteSpace=wrap;html=1;" parent="1" vertex="1">
          <mxGeometry x="-90" y="760" width="120" height="60" as="geometry" />
        </mxCell>
        <mxCell id="dB9IZ_hwEhJgan7sXvM7-32" value="&lt;font style=&quot;font-size: 18px;&quot;&gt;Generate&lt;/font&gt;" style="edgeStyle=orthogonalEdgeStyle;rounded=0;orthogonalLoop=1;jettySize=auto;html=1;" parent="1" source="dB9IZ_hwEhJgan7sXvM7-14" target="dB9IZ_hwEhJgan7sXvM7-16" edge="1">
          <mxGeometry relative="1" as="geometry" />
        </mxCell>
        <mxCell id="dB9IZ_hwEhJgan7sXvM7-14" value="&lt;font style=&quot;font-size: 18px;&quot;&gt;Garaga&lt;/font&gt;" style="rounded=1;whiteSpace=wrap;html=1;" parent="1" vertex="1">
          <mxGeometry x="-90" y="634.0699999999999" width="120" height="60" as="geometry" />
        </mxCell>
        <mxCell id="dB9IZ_hwEhJgan7sXvM7-37" value="" style="edgeStyle=orthogonalEdgeStyle;rounded=0;orthogonalLoop=1;jettySize=auto;html=1;" parent="1" source="dB9IZ_hwEhJgan7sXvM7-16" target="dB9IZ_hwEhJgan7sXvM7-17" edge="1">
          <mxGeometry relative="1" as="geometry" />
        </mxCell>
        <mxCell id="dB9IZ_hwEhJgan7sXvM7-16" value="&lt;font style=&quot;font-size: 18px;&quot;&gt;Verifier&lt;/font&gt;" style="rounded=1;whiteSpace=wrap;html=1;" parent="1" vertex="1">
          <mxGeometry x="170" y="634.07" width="120" height="60" as="geometry" />
        </mxCell>
        <mxCell id="dB9IZ_hwEhJgan7sXvM7-17" value="&lt;font style=&quot;font-size: 18px;&quot;&gt;Registry&lt;/font&gt;" style="rounded=1;whiteSpace=wrap;html=1;" parent="1" vertex="1">
          <mxGeometry x="170" y="740.002142857143" width="120" height="65.92357142857142" as="geometry" />
        </mxCell>
        <mxCell id="dB9IZ_hwEhJgan7sXvM7-40" value="" style="edgeStyle=orthogonalEdgeStyle;rounded=0;orthogonalLoop=1;jettySize=auto;html=1;" parent="1" source="dB9IZ_hwEhJgan7sXvM7-18" target="dB9IZ_hwEhJgan7sXvM7-17" edge="1">
          <mxGeometry relative="1" as="geometry" />
        </mxCell>
        <mxCell id="dB9IZ_hwEhJgan7sXvM7-41" value="&lt;font style=&quot;font-size: 18px;&quot;&gt;Is whitelisted&lt;/font&gt;" style="edgeLabel;html=1;align=center;verticalAlign=middle;resizable=0;points=[];" parent="dB9IZ_hwEhJgan7sXvM7-40" vertex="1" connectable="0">
          <mxGeometry x="-0.0409" relative="1" as="geometry">
            <mxPoint as="offset" />
          </mxGeometry>
        </mxCell>
        <mxCell id="dB9IZ_hwEhJgan7sXvM7-18" value="&lt;font style=&quot;font-size: 18px;&quot;&gt;ERC20&lt;/font&gt;" style="rounded=1;whiteSpace=wrap;html=1;" parent="1" vertex="1">
          <mxGeometry x="421" y="736.5314285714285" width="120" height="72.85714285714285" as="geometry" />
        </mxCell>
        <mxCell id="_JFYutlEdN26tSmnVc-t-2" value="" style="edgeStyle=orthogonalEdgeStyle;rounded=0;orthogonalLoop=1;jettySize=auto;html=1;" edge="1" parent="1" source="_JFYutlEdN26tSmnVc-t-1" target="dB9IZ_hwEhJgan7sXvM7-6">
          <mxGeometry relative="1" as="geometry" />
        </mxCell>
        <mxCell id="_JFYutlEdN26tSmnVc-t-1" value="&lt;font style=&quot;font-size: 18px;&quot;&gt;Starknet address&lt;/font&gt;" style="ellipse;whiteSpace=wrap;html=1;" vertex="1" parent="1">
          <mxGeometry x="-350" y="614.0699999999999" width="120" height="80" as="geometry" />
        </mxCell>
      </root>
    </mxGraphModel>
  </diagram>
</mxfile>
